<svg xmlns="http://www.w3.org/2000/svg" width="24" height="24" viewBox="0 0 24 24" role="img" aria-label="Apple logo">
  <path fill="#000" d="M16.365 12.64c.03 3.24 2.86 4.32 2.89 4.34-.024.077-.452 1.55-1.49 3.07-.9 1.32-1.84 2.64-3.31 2.67-1.45.03-1.92-.86-3.58-.86-1.66 0-2.17.83-3.54.88-1.42.06-2.5-1.42-3.41-2.73-1.86-2.69-3.29-7.6-1.38-10.92.95-1.65 2.66-2.7 4.52-2.73 1.41-.03 2.74.95 3.58.95.85 0 2.46-1.17 4.14-1 .71.03 2.72.29 4.01 2.2-.1.06-2.39 1.39-2.33 4.03zM14.27 3.9c.78-.95 1.31-2.27 1.17-3.6-1.13.05-2.5.74-3.31 1.69-.73.84-1.36 2.19-1.19 3.48 1.26.1 2.55-.64 3.33-1.57z"/>
</svg>
